<?xml version="1.0" standalone="no"?>
<!DOCTYPE svg PUBLIC "-//W3C//DTD SVG 20010904//EN"
 "http://www.w3.org/TR/2001/REC-SVG-20010904/DTD/svg10.dtd">
<svg version="1.0" xmlns="http://www.w3.org/2000/svg"
 width="1082.000000pt" height="1280.000000pt" viewBox="0 0 1082.000000 1280.000000"
 preserveAspectRatio="xMidYMid meet">
<metadata>
Created by potrace 1.15, written by Peter Selinger 2001-2017
</metadata>
<g transform="translate(0.000000,1280.000000) scale(0.100000,-0.100000)"
fill="#f44336" stroke="none">
<path d="M3110 11940 c-844 -73 -1578 -408 -1936 -883 -145 -193 -214 -384
-214 -596 0 -191 43 -334 149 -498 291 -449 949 -754 1765 -816 l159 -12 -84
-65 c-183 -141 -350 -297 -503 -470 -457 -517 -721 -1099 -812 -1790 -17 -133
-31 -722 -16 -685 6 12 11 -20 15 -95 31 -536 175 -1141 391 -1645 26 -60 49
-118 51 -127 12 -60 188 -382 312 -573 83 -126 206 -292 309 -415 90 -108 434
-464 449 -465 6 -1 9 -6 8 -12 -1 -6 81 -98 183 -205 223 -231 294 -310 362
-403 28 -38 57 -77 64 -85 7 -9 22 -32 33 -53 11 -20 23 -37 27 -37 4 0 5 -6
2 -13 -5 -13 51 -77 68 -77 6 0 23 -11 39 -24 62 -52 341 -141 519 -166 47 -6
99 -14 115 -17 17 -3 248 -8 515 -10 1456 -11 1711 -11 1790 -2 116 13 291 46
370 68 36 10 109 31 163 46 126 34 198 67 225 104 12 17 22 34 22 40 0 5 6 11
13 14 7 2 13 16 15 30 2 31 51 137 62 137 5 0 12 9 15 20 4 11 39 60 78 108
72 88 89 107 305 335 67 71 120 134 119 140 -1 6 3 11 8 12 17 0 365 352 465
470 649 761 1031 1707 1111 2755 17 228 6 790 -20 1040 -130 1209 -589 1963
-1454 2389 -253 124 -509 212 -802 277 -109 24 -133 26 -270 21 -173 -7 -289
-25 -430 -68 -122 -38 -168 -57 -396 -165 -168 -79 -311 -134 -387 -148 l-34
-6 7 63 c25 227 94 537 166 743 52 151 161 378 235 491 206 317 462 536 749
643 53 20 75 34 93 60 73 107 -72 307 -236 327 -43 5 -59 -1 -177 -57 -72 -34
-168 -87 -214 -117 -173 -116 -371 -336 -489 -546 -43 -76 -59 -96 -80 -100
-15 -3 -147 -22 -294 -43 l-267 -37 -163 159 c-583 568 -1189 917 -1762 1014
-140 24 -360 32 -506 20z m2930 -1313 c0 -2 -11 -30 -24 -63 -104 -255 -192
-714 -222 -1156 l-6 -98 -35 0 c-122 0 -309 68 -578 211 -198 105 -324 164
-412 193 l-52 17 72 62 c257 219 491 468 707 752 l53 70 81 6 c91 6 416 11
416 6z"/>
</g>
</svg>
